<mxfile host="app.diagrams.net" modified="2023-10-08T06:22:56.207Z" agent="Mozilla/5.0 (Windows NT 10.0; Win64; x64) AppleWebKit/537.36 (KHTML, like Gecko) Chrome/117.0.0.0 Safari/537.36" etag="Mx8vr2SapHWAUvlwQO9S" version="22.0.4" type="google">
  <diagram name="Page-1" id="RFSOVfxzM_-LFUSqr4_0">
    <mxGraphModel grid="1" page="1" gridSize="10" guides="1" tooltips="1" connect="1" arrows="1" fold="1" pageScale="1" pageWidth="850" pageHeight="1100" math="0" shadow="0">
      <root>
        <mxCell id="0" />
        <mxCell id="1" parent="0" />
        <object label="Raw Image (input)" id="FAMjcZNbuSABvf0tetzt-3">
          <mxCell style="text;html=1;align=center;verticalAlign=middle;resizable=0;points=[];autosize=1;strokeColor=none;fillColor=none;" vertex="1" parent="1">
            <mxGeometry x="-840" y="48" width="120" height="30" as="geometry" />
          </mxCell>
        </object>
        <mxCell id="FAMjcZNbuSABvf0tetzt-4" value="Face Detection" style="text;html=1;align=center;verticalAlign=middle;resizable=0;points=[];autosize=1;strokeColor=none;fillColor=none;" vertex="1" parent="1">
          <mxGeometry x="-670" y="48" width="100" height="30" as="geometry" />
        </mxCell>
        <mxCell id="FAMjcZNbuSABvf0tetzt-5" value="Face Mesh Estimation" style="text;html=1;align=center;verticalAlign=middle;resizable=0;points=[];autosize=1;strokeColor=none;fillColor=none;" vertex="1" parent="1">
          <mxGeometry x="-510" y="48" width="140" height="30" as="geometry" />
        </mxCell>
        <mxCell id="FAMjcZNbuSABvf0tetzt-6" value="Head Pose Estimation" style="text;html=1;align=center;verticalAlign=middle;resizable=0;points=[];autosize=1;strokeColor=none;fillColor=none;" vertex="1" parent="1">
          <mxGeometry x="-300" y="48" width="140" height="30" as="geometry" />
        </mxCell>
        <mxCell id="FAMjcZNbuSABvf0tetzt-7" value="" style="endArrow=classic;html=1;rounded=0;" edge="1" parent="1">
          <mxGeometry width="50" height="50" relative="1" as="geometry">
            <mxPoint x="-720" y="62.5" as="sourcePoint" />
            <mxPoint x="-680" y="62.5" as="targetPoint" />
          </mxGeometry>
        </mxCell>
        <mxCell id="FAMjcZNbuSABvf0tetzt-8" value="" style="endArrow=classic;html=1;rounded=0;" edge="1" parent="1">
          <mxGeometry width="50" height="50" relative="1" as="geometry">
            <mxPoint x="-560" y="60" as="sourcePoint" />
            <mxPoint x="-520" y="60" as="targetPoint" />
          </mxGeometry>
        </mxCell>
        <mxCell id="F4jSpFL3WLFXBhdMsXq1-1" value="" style="endArrow=classic;html=1;rounded=0;exitX=1.071;exitY=0.4;exitDx=0;exitDy=0;exitPerimeter=0;" edge="1" parent="1" source="FAMjcZNbuSABvf0tetzt-5">
          <mxGeometry width="50" height="50" relative="1" as="geometry">
            <mxPoint x="-450" y="150" as="sourcePoint" />
            <mxPoint x="-320" y="60" as="targetPoint" />
          </mxGeometry>
        </mxCell>
        <mxCell id="F4jSpFL3WLFXBhdMsXq1-3" value="Raw Audio (input)" style="text;html=1;align=center;verticalAlign=middle;resizable=0;points=[];autosize=1;strokeColor=none;fillColor=none;" vertex="1" parent="1">
          <mxGeometry x="-840" y="130" width="120" height="30" as="geometry" />
        </mxCell>
      </root>
    </mxGraphModel>
  </diagram>
</mxfile>
